Coordinates
version=1
nRows=31
nColumns=38
inDegrees=no

Units are S.I. units (second, meters, Newtons, ...)
If the header above contains a line with 'inDegrees', this indicates whether rotational values are in degrees (yes) or radians (no).

endheader
time	pelvis_tilt	pelvis_list	pelvis_rotation	pelvis_tx	pelvis_ty	pelvis_tz	hip_flexion_r	hip_adduction_r	hip_rotation_r	knee_angle_r	ankle_angle_r	subtalar_angle_r	mtp_angle_r	hip_flexion_l	hip_adduction_l	hip_rotation_l	knee_angle_l	ankle_angle_l	subtalar_angle_l	mtp_angle_l	lumbar_extension	lumbar_bending	lumbar_rotation	arm_flex_r	arm_add_r	arm_rot_r	elbow_flex_r	pro_sup_r	wrist_flex_r	wrist_dev_r	arm_flex_l	arm_add_l	arm_rot_l	elbow_flex_l	pro_sup_l	wrist_flex_l	wrist_dev_l
15	0.996677	1.45905	0.607116	0.671681	-0.463786	0.968595	0.226546	0.081043	-0.311807	0.335193	0.0944456	0	0	0.265701	-0.131097	-0.00303358	0.392317	0.18523	0	0	-0.0544293	0.158003	0.0371227	0.424848	-0.290268	0.101555	1.52353	1.5708	0	0	0.763521	-0.0876889	0.470089	0.90654	1.5708	0	0
15.01	1.01221	1.45947	0.596569	0.671058	-0.466609	0.968751	0.227558	0.080222	-0.315036	0.33439	0.0917161	0	0	0.255957	-0.130761	0.00276266	0.400863	0.191068	0	0	-0.0535955	0.158529	0.0349359	0.416355	-0.290016	0.0937331	1.52974	1.5708	0	0	0.761174	-0.0846499	0.469985	0.905624	1.5708	0	0
15.02	1.01573	1.45871	0.598972	0.670313	-0.469444	0.96873	0.230031	0.0795617	-0.317913	0.332292	0.0885566	0	0	0.248815	-0.130299	0.0101389	0.410577	0.197674	0	0	-0.0505764	0.159283	0.031858	0.407385	-0.29006	0.0856223	1.53639	1.5708	0	0	0.759149	-0.0827206	0.474811	0.90593	1.5708	0	0
15.03	0.939621	1.46422	0.681025	0.670011	-0.472055	0.967504	0.232699	0.0731046	-0.312074	0.319616	0.0854182	0	0	0.244655	-0.119286	0.0156679	0.420036	0.204622	0	0	-0.0421508	0.146513	0.0275863	0.397425	-0.287284	0.0779163	1.54133	1.5708	0	0	0.757642	-0.0841563	0.482185	0.909141	1.5708	0	0
15.04	1.02438	1.45844	0.600754	0.668714	-0.475284	0.968711	0.236229	0.0763385	-0.325665	0.333077	0.0835617	0	0	0.232721	-0.128429	0.0232596	0.427534	0.209116	0	0	-0.0461689	0.160044	0.0252248	0.393853	-0.291321	0.0755423	1.54534	1.5708	0	0	0.753031	-0.0801402	0.47851	0.910225	1.5708	0	0
15.05	1.02842	1.45819	0.602443	0.667779	-0.478307	0.968651	0.240366	0.0740033	-0.332619	0.335533	0.0820268	0	0	0.225143	-0.127134	0.031104	0.435906	0.215158	0	0	-0.0440159	0.160561	0.0210025	0.387947	-0.292136	0.0710949	1.54998	1.5708	0	0	0.749726	-0.079024	0.479057	0.912808	1.5708	0	0
15.06	1.02681	1.45767	0.609728	0.666798	-0.481354	0.968531	0.244942	0.0716121	-0.3384	0.337192	0.0799743	0	0	0.218363	-0.125427	0.0394375	0.443948	0.220903	0	0	-0.0410976	0.160861	0.0163996	0.382037	-0.292897	0.0666641	1.55459	1.5708	0	0	0.746467	-0.077835	0.47989	0.915186	1.5708	0	0
15.07	1.02485	1.45755	0.617694	0.665695	-0.484423	0.968415	0.249173	0.0689617	-0.342325	0.338441	0.077191	0	0	0.211394	-0.123064	0.0480415	0.451498	0.225926	0	0	-0.0383553	0.16078	0.0113779	0.376151	-0.29404	0.0625634	1.55923	1.5708	0	0	0.743248	-0.0767394	0.481414	0.917629	1.5708	0	0
15.08	1.02195	1.45726	0.626101	0.664584	-0.487586	0.968294	0.254049	0.0662321	-0.346132	0.340472	0.0742918	0	0	0.204477	-0.120828	0.0560107	0.45837	0.230049	0	0	-0.0356937	0.160774	0.00688263	0.370731	-0.295397	0.0586121	1.56317	1.5708	0	0	0.74034	-0.0754286	0.483124	0.919906	1.5708	0	0
15.09	1.01682	1.45697	0.636301	0.663432	-0.490841	0.968155	0.259691	0.0629144	-0.34979	0.343407	0.071821	0	0	0.197728	-0.118409	0.0631634	0.464431	0.23373	0	0	-0.0331431	0.160612	0.00286151	0.365844	-0.296889	0.0546514	1.56654	1.5708	0	0	0.737686	-0.0739003	0.484424	0.922271	1.5708	0	0
15.1	1.01357	1.45707	0.644762	0.662178	-0.494097	0.968023	0.264749	0.059393	-0.353339	0.345785	0.0694245	0	0	0.190427	-0.115582	0.0702409	0.469589	0.237311	0	0	-0.0311405	0.160236	-0.00126189	0.360768	-0.298694	0.0506801	1.57051	1.5708	0	0	0.735071	-0.0722662	0.485305	0.925041	1.5708	0	0
15.11	1.0083	1.45679	0.655031	0.660925	-0.497287	0.967878	0.269623	0.0564295	-0.356865	0.346849	0.0663356	0	0	0.183395	-0.112937	0.0766382	0.473938	0.241386	0	0	-0.0285615	0.159931	-0.00510902	0.354855	-0.300589	0.0465592	1.57527	1.5708	0	0	0.7321	-0.0701856	0.485538	0.927644	1.5708	0	0
15.12	1.00374	1.45619	0.664316	0.659625	-0.500571	0.96773	0.274353	0.0538549	-0.359995	0.347288	0.0625591	0	0	0.176449	-0.110446	0.0827128	0.477409	0.245983	0	0	-0.0259991	0.160019	-0.00883203	0.349536	-0.302595	0.0425996	1.57947	1.5708	0	0	0.729162	-0.0679081	0.485437	0.930069	1.5708	0	0
15.13	1.00059	1.45568	0.671966	0.658287	-0.503898	0.967609	0.27885	0.0509509	-0.363798	0.348143	0.0590703	0	0	0.169072	-0.108106	0.0877693	0.479771	0.250188	0	0	-0.0238359	0.16009	-0.0124867	0.344556	-0.304429	0.0386092	1.58321	1.5708	0	0	0.726302	-0.0657136	0.485499	0.93254	1.5708	0	0
15.14	0.892287	1.45852	0.797979	0.65601	-0.509446	0.967837	0.294126	0.0315031	-0.376925	0.353672	0.0555215	0	0	0.173444	-0.0990586	0.0638853	0.475052	0.245853	0	0	-0.0180268	0.147961	-0.0296263	0.342259	-0.301533	0.0323335	1.5833	1.5708	0	0	0.726984	-0.0651242	0.485525	0.934155	1.5708	0	0
15.15	0.989262	1.45615	0.691713	0.65567	-0.510851	0.96752	0.287304	0.0436956	-0.371268	0.349003	0.0521387	0	0	0.1628	-0.103225	0.0778209	0.505127	0.26228	0	0	-0.0212239	0.15805	-0.0187228	0.334924	-0.307201	0.0290557	1.59065	1.5708	0	0	0.721813	-0.0613555	0.486252	0.936996	1.5708	0	0
15.16	0.982529	1.45575	0.702119	0.654279	-0.514423	0.96734	0.292119	0.0406739	-0.374172	0.349058	0.0485307	0	0	0.155983	-0.100479	0.0807936	0.504836	0.262811	0	0	-0.0194843	0.157548	-0.0215403	0.33098	-0.309111	0.0251469	1.59408	1.5708	0	0	0.719825	-0.0592689	0.486513	0.939763	1.5708	0	0
15.17	0.976818	1.45501	0.711175	0.652855	-0.518068	0.967127	0.297083	0.0378494	-0.377145	0.349172	0.04481	0	0	0.149362	-0.0981207	0.082484	0.503597	0.262711	0	0	-0.0178377	0.157313	-0.023844	0.327384	-0.311109	0.0206431	1.59748	1.5708	0	0	0.718423	-0.056504	0.486504	0.942086	1.5708	0	0
15.18	0.968278	1.45422	0.722639	0.651397	-0.52178	0.966852	0.3028	0.0345648	-0.380205	0.350245	0.0412208	0	0	0.142872	-0.0957263	0.0828274	0.500573	0.260189	0	0	-0.0161743	0.156916	-0.0258794	0.324283	-0.313187	0.0158647	1.6009	1.5708	0	0	0.717285	-0.0536401	0.486395	0.944167	1.5708	0	0
15.19	0.956659	1.4531	0.736818	0.649898	-0.525593	0.966493	0.309404	0.0312676	-0.382716	0.351742	0.0379039	0	0	0.136804	-0.0933524	0.0821023	0.495737	0.253602	0	0	-0.0142548	0.156542	-0.0274166	0.321227	-0.31554	0.010648	1.60471	1.5708	0	0	0.716509	-0.0506382	0.487086	0.945505	1.5708	0	0
15.2	0.942738	1.45172	0.752869	0.648361	-0.529504	0.966072	0.316678	0.0279191	-0.384975	0.353486	0.034387	0	0	0.130943	-0.0908168	0.0806343	0.4885	0.24074	0	0	-0.0121672	0.156182	-0.0284619	0.318155	-0.31832	0.00562086	1.60876	1.5708	0	0	0.716054	-0.0478105	0.48897	0.946803	1.5708	0	0
15.21	0.934747	1.45012	0.762798	0.646809	-0.533442	0.965631	0.323282	0.0252174	-0.386768	0.354504	0.030677	0	0	0.124418	-0.0891007	0.0778474	0.478857	0.223924	0	0	-0.0106262	0.156459	-0.0295189	0.315891	-0.321262	0.00131588	1.61186	1.5708	0	0	0.715905	-0.0449474	0.490452	0.948703	1.5708	0	0
15.22	0.931497	1.44837	0.767704	0.645227	-0.537444	0.965151	0.329697	0.0230298	-0.388594	0.355634	0.0269799	0	0	0.117369	-0.08802	0.0738816	0.467631	0.213095	0	0	-0.00940487	0.157389	-0.030931	0.31534	-0.324109	-0.00187329	1.6134	1.5708	0	0	0.716258	-0.041911	0.49078	0.9504	1.5708	0	0
15.23	0.927033	1.44641	0.773628	0.643592	-0.541548	0.96459	0.336799	0.0207283	-0.39067	0.357325	0.0233332	0	0	0.1104	-0.0869034	0.0690488	0.454526	0.218535	0	0	-0.0081115	0.158261	-0.0320408	0.314697	-0.327261	-0.00591379	1.61576	1.5708	0	0	0.717681	-0.0381449	0.491411	0.951235	1.5708	0	0
15.24	0.919514	1.4446	0.782194	0.641922	-0.545746	0.963962	0.344397	0.0179938	-0.392032	0.359493	0.0195597	0	0	0.102782	-0.0853217	0.0626514	0.435596	0.228452	0	0	-0.0069382	0.158681	-0.0329006	0.314536	-0.330549	-0.0099322	1.6183	1.5708	0	0	0.719775	-0.0347378	0.494078	0.951671	1.5708	0	0
15.25	0.914788	1.44352	0.788606	0.640159	-0.550087	0.963391	0.35102	0.0148186	-0.393323	0.36107	0.0155523	0	0	0.0937681	-0.0832443	0.0562839	0.409619	0.229774	0	0	-0.00678415	0.158761	-0.0348768	0.315163	-0.333626	-0.0138611	1.62032	1.5708	0	0	0.721093	-0.0333077	0.497524	0.952721	1.5708	0	0
15.26	0.908774	1.44284	0.796472	0.638355	-0.554587	0.962853	0.357861	0.0108558	-0.395298	0.363192	0.0114119	0	0	0.0842439	-0.0804232	0.0516983	0.37937	0.227021	0	0	-0.00712602	0.158222	-0.0370525	0.316049	-0.336888	-0.0173204	1.6216	1.5708	0	0	0.723143	-0.0316897	0.501391	0.952994	1.5708	0	0
15.27	0.903378	1.44238	0.803943	0.636496	-0.559205	0.962367	0.364544	0.00667581	-0.397425	0.365064	0.00701963	0	0	0.074912	-0.0773871	0.048991	0.349084	0.22453	0	0	-0.00791882	0.157392	-0.0392843	0.317357	-0.340172	-0.0206005	1.62172	1.5708	0	0	0.726562	-0.0299591	0.507357	0.952715	1.5708	0	0
15.28	0.806316	1.43949	0.914481	0.633889	-0.565522	0.961827	0.383966	-0.0101346	-0.404527	0.370127	0.00113999	0	0	0.0841542	-0.0751592	0.00204175	0.335203	0.221481	0	0	-0.00199939	0.149481	-0.062261	0.328595	-0.336494	-0.0139672	1.61538	1.5708	0	0	0.70935	-0.00514074	0.264427	1.05545	0.869164	0	0
15.29	0.868392	1.44148	0.844309	0.63241	-0.568812	0.961485	0.380059	-0.00401009	-0.398008	0.367544	-0.00345877	0	0	0.0612701	-0.0674463	0.051763	0.294087	0.218667	0	0	-0.00987779	0.155099	-0.0547096	0.330272	-0.343254	-0.0148607	1.61756	1.5708	0	0	0.710389	-0.00168246	0.265443	1.05759	0.862817	0	0
15.3	0.851	1.44319	0.864534	0.63053	-0.574056	0.961098	0.386721	-0.0109044	-0.398212	0.369248	-0.00851012	0	0	0.0555905	-0.0609566	0.0565318	0.27113	0.213499	0	0	-0.0105976	0.149529	-0.0527229	0.328094	-0.34741	-0.0245893	1.61683	1.5708	0	0	0.734034	-0.0244282	0.508085	0.957389	1.5708	0	0
